Coordinates
version=1
nRows=16
nColumns=18
inDegrees=yes

Units are S.I. units (second, meters, Newtons, ...)
If the header above contains a line with 'inDegrees', this indicates whether rotational values are in degrees (yes) or radians (no).

endheader
time	ground_thorax_rot_x	ground_thorax_rot_y	ground_thorax_rot_z	ground_thorax_tx	ground_thorax_ty	ground_thorax_tz	clav_prot	clav_elev	scapula_abduction	scapula_elevation	scapula_upward_rot	scapula_winging	plane_elv	shoulder_elv	axial_rot	elbow_flexion	pro_sup
      2.49000000	      3.24396999	     -4.19125752	     -8.38261572	     -0.00537335	      0.00425118	      0.00228895	    -22.48985411	     -3.44148720	    -13.00850465	     -3.16540461	     12.24459915	      5.32503736	    -22.57640092	     17.83613586	     46.45717266	      0.00000000	     34.32000000
      2.50000000	      3.33889601	     -4.16651168	     -8.34546424	     -0.00541629	      0.00407667	      0.00214392	    -22.47345199	     -3.50660433	    -12.98701280	     -3.20294612	     12.20181689	      5.35402603	    -22.56176456	     17.78261163	     46.46730259	      0.00000000	     34.32000000
      2.51000000	      3.18540682	     -4.20337081	     -8.49630130	     -0.00526488	      0.00411850	      0.00212126	    -22.40077728	     -4.00891334	    -13.01092630	     -3.45116557	     11.70542742	      5.62620837	    -21.97890788	     18.05604942	     47.28683361	      0.00000000	     34.32000000
      2.52000000	      3.20235229	     -4.15760292	     -8.45278331	     -0.00530114	      0.00418214	      0.00206040	    -22.38962966	     -4.03558506	    -12.98024156	     -3.47312568	     11.71324865	      5.63171054	    -21.95834094	     18.02535639	     47.29509408	      0.00000000	     34.32000000
      2.53000000	      3.20820716	     -4.11830520	     -8.40706952	     -0.00541279	      0.00436663	      0.00185574	    -22.37454944	     -4.06292897	    -12.94844634	     -3.49257756	     11.71071170	      5.63990978	    -21.93292951	     17.96889945	     47.30389316	      0.00000000	     34.32000000
      2.54000000	      3.05827909	     -4.30289564	     -8.43905429	     -0.00542566	      0.00415836	      0.00183801	    -22.30950351	     -4.11480446	    -12.88603600	     -3.49820280	     11.59795030	      5.68136825	    -21.69440523	     17.71787076	     47.53879571	      0.00000000	     34.32000000
      2.55000000	      3.12203638	     -4.37195711	     -8.47170974	     -0.00551131	      0.00404827	      0.00189656	    -22.31111935	     -4.11916798	    -12.91514939	     -3.48854596	     11.54936442	      5.69517330	    -21.70400884	     17.71491377	     47.55132984	      0.00000000	     34.32000000
      2.56000000	      3.15996113	     -4.46710497	     -8.50427235	     -0.00552464	      0.00397950	      0.00201431	    -22.32307988	     -4.11448963	    -12.95656416	     -3.47641355	     11.51499308	      5.70309527	    -21.71403280	     17.73504105	     47.56759944	      0.00000000	     34.32000000
      2.57000000	      3.16840062	     -4.82475815	     -8.42985054	     -0.00544087	      0.00413754	      0.00235267	    -22.22390930	     -4.08045073	    -12.70993710	     -3.48406158	     11.66254128	      5.65035003	    -22.37648265	     17.19853622	     52.69633527	      0.00000000	     34.32000000
      2.58000000	      3.17167370	     -4.81994824	     -8.41887190	     -0.00541633	      0.00421724	      0.00222691	    -22.22096543	     -4.08849366	    -12.70844261	     -3.48736465	     11.65248464	      5.65519465	    -22.37242167	     17.17138476	     52.69549773	      0.00000000	     34.32000000
      2.59000000	      3.17266161	     -4.81979555	     -8.41824385	     -0.00533909	      0.00417845	      0.00213016	    -22.22081157	     -4.08902370	    -12.70839060	     -3.48759643	     11.65186465	      5.65550767	    -22.37230745	     17.17032382	     52.69546598	      0.00000000	     34.32000000
      2.60000000	      3.19865797	     -4.82635606	     -8.42210549	     -0.00536092	      0.00415015	      0.00220027	    -22.21780834	     -4.09790714	    -12.71554516	     -3.48726449	     11.62594506	      5.66465741	    -22.37549998	     17.14792071	     52.69441438	      0.00000000	     34.32000000
      2.61000000	      3.20008371	     -4.82781830	     -8.42249415	     -0.00546325	      0.00405829	      0.00213521	    -22.21796384	     -4.09824032	    -12.71629848	     -3.48725817	     11.62493686	      5.66502316	    -22.37589876	     17.14747597	     52.69436249	      0.00000000	     34.32000000
      2.62000000	      3.23088123	     -4.85781093	     -8.41565964	     -0.00542384	      0.00409642	      0.00219842	    -22.22209781	     -4.11535863	    -12.73509264	     -3.49305734	     11.59663860	      5.67760345	    -22.38604894	     17.11664279	     52.69141181	      0.00000000	     34.32000000
      2.63000000	      3.24741468	     -4.84330361	     -8.38123799	     -0.00538895	      0.00412754	      0.00220238	    -22.22188773	     -4.14532835	    -12.72953054	     -3.51488048	     11.59209908	      5.68780977	    -22.38232983	     17.08283823	     52.68868082	      0.00000000	     34.32000000
      2.64000000	      3.27132484	     -4.80792675	     -8.35613677	     -0.00530125	      0.00400753	      0.00232732	    -22.21920331	     -4.17622348	    -12.71600096	     -3.53895194	     11.59375824	      5.69661307	    -22.37560648	     17.07147775	     52.68580229	      0.00000000	     34.32000000
